<?xml version="1.0" encoding="iso-8859-1"?>
<!-- Uploaded to: SVG Repo, www.svgrepo.com, Generator: SVG Repo Mixer Tools -->
<svg height="800px" width="800px" version="1.1" id="Layer_1" xmlns="http://www.w3.org/2000/svg" xmlns:xlink="http://www.w3.org/1999/xlink" 
	 viewBox="0 0 512.001 512.001" xml:space="preserve">
<path style="fill:#D78C33;" d="M230.532,454.414c62.554,62.553,163.977,62.551,226.526,0c62.556-62.557,62.554-163.972,0-226.527
	c-45.947-45.947-112.851-58.101-169.93-36.546l-49.911-41.235c-12.725-12.723-33.35-12.723-46.071,0l-38.395,38.393
	c-12.722,12.723-12.723,33.35,0,46.075l41.234,49.909C172.434,341.565,184.585,408.468,230.532,454.414z"/>
<path style="fill:#FFF1CE;" d="M174.241,133.202l-52.233-52.233c13.789-16.941,12.793-41.906-2.987-57.689
	c-16.846-16.844-44.155-16.846-61.001,0c-7.034,7.033-11.087,15.897-12.248,25.057c-9.162,1.161-18.024,5.215-25.058,12.248
	c-16.846,16.846-16.842,44.155,0,61.001c15.78,15.778,40.745,16.778,57.686,2.987l69.139,69.138l43.608-43.606"/>
<g>
	<path style="fill:#202020;" d="M462.79,222.154c-0.952-0.952-1.915-1.89-2.887-2.818c-0.548-0.523-1.106-1.033-1.66-1.549
		c-0.411-0.382-0.818-0.768-1.233-1.146c-0.787-0.717-1.582-1.419-2.38-2.12c-0.172-0.151-0.342-0.305-0.514-0.455
		c-22.664-19.731-49.791-32.816-78.987-38.274c-0.11-0.021-0.222-0.041-0.332-0.062c-1.026-0.189-2.054-0.372-3.084-0.543
		c-0.539-0.09-1.08-0.174-1.62-0.259c-0.633-0.098-1.267-0.198-1.902-0.29c-1.051-0.153-2.103-0.294-3.158-0.427
		c-0.153-0.019-0.306-0.04-0.458-0.059c-4.252-0.526-8.537-0.901-12.849-1.104c-21.644-1.018-43.005,2.125-63.042,9.059
		l-46.023-38.022c-7.651-7.503-17.75-11.631-28.481-11.631c-10.867,0-21.083,4.232-28.765,11.916l-15.885,15.884l-54.318-54.317
		c-3.167-3.166-8.299-3.166-11.465,0c-3.166,3.166-3.166,8.299,0,11.463l54.318,54.318l-10.526,10.525l-63.406-63.405
		c-2.939-2.94-7.626-3.179-10.85-0.554c-13.956,11.358-34.091,10.311-46.836-2.432c-13.655-13.66-13.657-35.881-0.001-49.536
		c5.516-5.514,12.55-8.952,20.346-9.939c3.668-0.465,6.556-3.354,7.022-7.022c0.988-7.796,4.425-14.831,9.938-20.345
		c13.654-13.657,35.877-13.657,49.535,0c12.745,12.748,13.792,32.885,2.433,46.84c-2.624,3.223-2.384,7.91,0.554,10.85
		l52.233,52.233c3.167,3.166,8.299,3.166,11.465,0c3.166-3.166,3.166-8.299,0-11.465L132.54,80.038
		c11.935-19.877,9.085-45.613-7.79-62.49c-19.978-19.976-52.487-19.976-72.463,0C45.633,24.2,41.045,32.356,38.826,41.392
		c-9.036,2.219-17.191,6.807-23.847,13.462c-19.973,19.975-19.973,52.482,0.003,72.463c16.875,16.874,42.61,19.723,62.487,7.79
		l60.772,60.772c-6.084,14.648-3.257,32.154,8.491,44.139l38.056,46.063c-20.976,60.682-5.526,128.53,40.011,174.067
		c31.781,31.779,74.041,49.285,118.996,49.288h0.015c44.942,0,87.197-17.503,118.981-49.288
		C528.404,394.531,528.404,287.769,462.79,222.154z M451.325,448.682c-28.722,28.724-66.901,44.542-107.516,44.54h-0.014
		c-40.625-0.003-78.813-15.821-107.531-44.54c-42.162-42.161-55.779-105.489-34.695-161.336c1.027-2.722,0.518-5.785-1.334-8.027
		L159,229.41c-0.163-0.198-0.336-0.387-0.518-0.569c-9.54-9.542-9.541-25.064-0.005-34.607l20.604-20.603l17.797-17.795
		c4.621-4.622,10.766-7.167,17.301-7.167c6.537,0,12.683,2.545,17.307,7.168c0.182,0.182,0.371,0.353,0.567,0.517l39.602,32.718
		c-12.182,5.783-23.713,13.047-34.315,21.725c-3.464,2.836-3.974,7.943-1.138,11.407c2.835,3.465,7.944,3.971,11.408,1.138
		c12.668-10.369,26.512-18.37,40.993-24.049c0.468-0.086,0.934-0.2,1.388-0.371c17.241-6.511,35.365-9.813,53.868-9.813
		c34.217,0,66.705,11.228,93.253,31.938c0.04,0.031,0.08,0.062,0.12,0.093c0.887,0.694,1.766,1.401,2.639,2.115
		c0.106,0.086,0.213,0.171,0.318,0.257c0.817,0.672,1.626,1.356,2.431,2.047c0.149,0.129,0.3,0.253,0.451,0.382
		c0.774,0.669,1.538,1.35,2.3,2.036c0.17,0.152,0.343,0.302,0.511,0.455c0.804,0.73,1.599,1.472,2.39,2.221
		c0.117,0.11,0.237,0.217,0.352,0.329c0.908,0.866,1.808,1.743,2.698,2.633C510.617,292.911,510.617,389.389,451.325,448.682z"/>
	<path style="fill:#202020;" d="M461.865,378.363c-0.623,0-1.256-0.072-1.889-0.224c-4.355-1.041-7.042-5.414-6.002-9.768
		c0.861-3.606,1.55-7.303,2.047-10.992c0.598-4.436,4.679-7.55,9.116-6.952c4.436,0.598,7.549,4.678,6.952,9.116
		c-0.569,4.225-1.358,8.462-2.344,12.594C468.855,375.86,465.531,378.363,461.865,378.363z"/>
	<path style="fill:#202020;" d="M464.914,343.413c-4.261,0-7.834-3.325-8.085-7.634c-2.663-45.61-33.706-85.601-77.248-99.515
		c-4.264-1.363-6.617-5.925-5.254-10.189c1.364-4.265,5.925-6.617,10.19-5.254c24.36,7.784,45.63,22.582,61.509,42.793
		c16.135,20.535,25.468,45.163,26.989,71.22c0.26,4.47-3.151,8.305-7.62,8.566C465.233,343.408,465.073,343.413,464.914,343.413z"/>
</g>
<g style="opacity:0.15;">
	<path style="fill:#202020;" d="M255.961,461.346c-47.203-47.204-58.746-116.519-34.714-174.581
		c0.025-0.066,0.038-0.123,0.066-0.193c2.09-5.405-0.076-9.436-1.358-11.185l-0.801-0.959l-0.002-0.002l0,0l-32.183-38.542
		c-11.893-14.046-21.714-23.855-8.993-36.579l47.938-47.762c2.07-2.07,4.355-3.793,6.775-5.189
		c-12.697-8.793-30.237-7.561-41.541,3.748l-38.395,38.393c-12.722,12.723-12.723,33.35,0,46.075l41.234,49.909
		c-21.551,57.084-9.4,123.985,36.547,169.932c23.764,23.761,53.134,38.487,83.854,44.196
		C293.066,490.858,273.06,478.445,255.961,461.346z"/>
</g>
</svg>