<?xml version="1.0" encoding="iso-8859-1"?>
<!-- Uploaded to: SVG Repo, www.svgrepo.com, Generator: SVG Repo Mixer Tools -->
<svg height="800px" width="800px" version="1.1" id="Layer_1" xmlns="http://www.w3.org/2000/svg" xmlns:xlink="http://www.w3.org/1999/xlink" 
	 viewBox="0 0 512.004 512.004" xml:space="preserve">
<path style="fill:#897249;" d="M378.95,409.261c-25.581,27.423-46.264,59.456-60.749,94.688
	c14.485-8.833,35.168-16.864,60.749-23.739c25.579,6.875,46.266,14.906,60.753,23.74h0.002
	C425.217,468.717,404.529,436.684,378.95,409.261z"/>
<g>
	<path style="fill:#7A6441;" d="M256,409.261c-25.581,27.423-46.264,59.456-60.749,94.688c14.485-8.833,35.168-16.864,60.749-23.739
		c25.579,6.875,46.266,14.906,60.753,23.74h0.002C302.266,468.717,281.579,436.684,256,409.261z"/>
	<path style="fill:#7A6441;" d="M308.104,106.944c0.174-0.58,0.359-1.155,0.537-1.734c0.515-1.673,1.042-3.339,1.586-5
		c0.229-0.699,0.464-1.397,0.696-2.093c0.522-1.561,1.056-3.115,1.604-4.666c0.245-0.697,0.491-1.393,0.742-2.087
		c0.587-1.626,1.188-3.243,1.801-4.856c0.22-0.577,0.432-1.155,0.654-1.73c0.574-1.485,1.166-2.959,1.762-4.432
		c-8.85-21.889-20.1-42.552-33.428-61.661l-16.365,28.895L235.699,8.053c-40.049,52.603-63.871,118.218-63.871,189.435
		c0,82.545,31.985,157.582,84.172,213.53c25.99-27.859,46.962-60.456,61.477-96.35c-14.632-36.192-22.698-75.739-22.698-117.18
		C294.778,165.996,299.444,135.604,308.104,106.944z"/>
</g>
<path style="fill:#897249;" d="M133.051,409.261c-25.583,27.423-46.264,59.456-60.751,94.688
	c14.487-8.833,35.168-16.864,60.751-23.739c25.579,6.875,46.264,14.906,60.753,23.74h0.002
	C179.317,468.717,158.63,436.684,133.051,409.261z"/>
<g style="opacity:0.15;">
	<path style="fill:#202020;" d="M145.698,423.702c-4.073-4.94-8.283-9.763-12.646-14.441
		c-25.583,27.423-46.264,59.456-60.751,94.688c8.534-5.204,19.232-10.125,31.799-14.698
		C115.257,465.636,129.262,443.636,145.698,423.702z"/>
</g>
<g style="opacity:0.15;">
	<path style="fill:#202020;" d="M268.648,423.702c-4.073-4.94-8.283-9.763-12.646-14.441
		c-25.583,27.423-46.264,59.456-60.751,94.688c8.534-5.204,19.232-10.125,31.799-14.698
		C238.207,465.636,252.213,443.636,268.648,423.702z"/>
</g>
<g style="opacity:0.15;">
	<path style="fill:#202020;" d="M391.596,423.702c-4.072-4.94-8.281-9.763-12.646-14.441
		c-25.581,27.423-46.264,59.456-60.749,94.688c8.532-5.204,19.23-10.125,31.798-14.698
		C361.157,465.636,375.163,443.636,391.596,423.702z"/>
</g>
<path style="fill:#897249;" d="M407.008,18.685L390.643,47.58L358.649,8.053c-40.049,52.603-63.871,118.218-63.871,189.435
	c0,82.545,31.985,157.582,84.172,213.53c52.191-55.948,84.176-130.986,84.176-213.53C463.127,130.994,442.361,69.38,407.008,18.685z
	"/>
<g>
	<path style="fill:#A08B6A;" d="M454.848,125.745c-9.161-39.001-25.616-75.19-47.841-107.061l-16.365,28.895L358.649,8.053
		c-23.728,31.163-41.756,66.895-52.512,105.653c23.589,15.412,53.341,24.604,85.672,24.604c13.437,0,26.426-1.588,38.712-4.55"/>
	<path style="fill:#A08B6A;" d="M301.004,135.19c1.938-9.582,4.307-19.005,7.1-28.248c0.174-0.58,0.359-1.155,0.537-1.734
		c0.515-1.673,1.042-3.339,1.586-5c0.229-0.699,0.464-1.397,0.696-2.093c0.522-1.561,1.056-3.115,1.604-4.666
		c0.245-0.697,0.491-1.393,0.742-2.087c0.587-1.626,1.188-3.243,1.801-4.856c0.22-0.577,0.432-1.155,0.654-1.73
		c0.57-1.474,1.157-2.939,1.749-4.403c-8.848-21.896-20.085-42.574-33.415-61.69L267.691,47.58L235.699,8.053
		c-23.728,31.163-41.756,66.895-52.512,105.653c23.589,15.412,53.341,24.604,85.672,24.604c2.231,0,4.45-0.044,6.655-0.131"/>
</g>
<path style="fill:#897249;" d="M171.827,197.488c0-41.433,8.076-80.962,22.706-117.143c-8.85-21.889-20.1-42.552-33.428-61.661
	L144.74,47.579L112.75,8.053C72.698,60.656,48.877,126.272,48.877,197.488c0,82.545,31.985,157.582,84.174,213.53
	c25.988-27.859,46.962-60.456,61.477-96.35C179.894,278.477,171.827,238.93,171.827,197.488z"/>
<path style="fill:#A08B6A;" d="M178.055,135.19c3.833-18.95,9.377-37.276,16.469-54.816c-8.85-21.896-20.088-42.574-33.417-61.69
	l-16.365,28.895L112.75,8.053C89.022,39.217,70.994,74.948,60.237,113.706c23.589,15.412,53.339,24.604,85.672,24.604
	c1.575,0,3.143-0.023,4.705-0.067"/>
<g>
	<path style="fill:#202020;" d="M110.068,75.088c-7.737,0-14.032,6.294-14.032,14.032c0,7.738,6.294,14.033,14.032,14.033
		c7.738,0,14.034-6.294,14.034-14.033C124.102,81.382,117.806,75.088,110.068,75.088z M110.068,91.191
		c-1.141,0-2.07-0.929-2.07-2.072c0-1.141,0.929-2.071,2.07-2.071c1.142,0,2.072,0.929,2.072,2.071
		C112.14,90.263,111.211,91.191,110.068,91.191z"/>
	<path style="fill:#202020;" d="M233.017,75.088c-7.737,0-14.032,6.294-14.032,14.032c0,7.738,6.294,14.033,14.032,14.033
		c7.738,0,14.034-6.294,14.034-14.033C247.051,81.382,240.756,75.088,233.017,75.088z M233.017,91.191
		c-1.141,0-2.07-0.929-2.07-2.072c0-1.141,0.929-2.071,2.07-2.071c1.142,0,2.072,0.929,2.072,2.071
		C235.088,90.263,234.16,91.191,233.017,91.191z"/>
	<path style="fill:#202020;" d="M390.611,410.142c52.015-58.797,80.567-133.968,80.567-212.654c0-37.84-6.559-74.834-19.247-109.696
		c-0.04-0.109-0.081-0.218-0.12-0.327c-0.772-2.113-1.565-4.217-2.382-6.315c-0.121-0.31-0.24-0.622-0.363-0.932
		c-0.808-2.057-1.636-4.107-2.488-6.148c-0.079-0.19-0.156-0.381-0.235-0.571c-0.93-2.216-1.883-4.424-2.864-6.621
		c-0.149-0.334-0.306-0.665-0.456-0.998c-0.785-1.74-1.584-3.475-2.399-5.203c-0.352-0.745-0.712-1.487-1.069-2.229
		c-0.641-1.33-1.29-2.656-1.95-3.978c-0.41-0.821-0.821-1.641-1.238-2.46c-0.666-1.304-1.344-2.602-2.027-3.898
		c-0.399-0.757-0.792-1.517-1.198-2.272c-1.051-1.953-2.118-3.898-3.211-5.833c-0.306-0.542-0.625-1.079-0.935-1.619
		c-0.841-1.469-1.689-2.934-2.554-4.391c-0.451-0.76-0.911-1.515-1.37-2.272c-0.761-1.258-1.53-2.513-2.309-3.763
		c-0.471-0.755-0.945-1.508-1.421-2.26c-0.838-1.32-1.691-2.635-2.55-3.945c-0.419-0.638-0.832-1.279-1.255-1.914
		c-1.287-1.932-2.591-3.857-3.923-5.767c-1.585-2.27-4.23-3.564-6.981-3.438c-2.763,0.13-5.266,1.668-6.63,4.075l-10.538,18.608
		L364.908,2.988c-0.973-1.201-2.25-2.085-3.679-2.567c-0.857-0.29-1.768-0.435-2.699-0.418c-0.618,0.01-1.226,0.089-1.814,0.235
		c-1.765,0.437-3.348,1.463-4.472,2.938c-1.469,1.929-2.908,3.873-4.33,5.828c-0.378,0.52-0.746,1.046-1.12,1.567
		c-1.05,1.461-2.09,2.927-3.113,4.402c-0.397,0.572-0.787,1.149-1.18,1.723c-1.02,1.492-2.029,2.99-3.022,4.495
		c-0.321,0.486-0.64,0.974-0.958,1.461c-1.133,1.737-2.248,3.483-3.345,5.238c-0.146,0.235-0.295,0.469-0.441,0.704
		c-6.383,10.267-12.153,20.825-17.292,31.642c-6.96-14.679-15.063-28.835-24.175-42.31c-0.867-1.283-1.718-2.578-2.603-3.848
		c-0.166-0.239-0.351-0.461-0.54-0.677c-1.572-1.807-3.866-2.826-6.299-2.758c-0.047,0.001-0.094-0.005-0.142-0.002l0,0
		c0,0,0,0-0.001,0c-0.582,0.027-1.148,0.13-1.697,0.278c-0.103,0.028-0.21,0.044-0.311,0.075c-0.033,0.011-0.064,0.026-0.097,0.037
		c-1.891,0.614-3.517,1.911-4.523,3.686l-10.538,18.608L241.958,2.988c-1.556-1.922-3.887-3.031-6.378-2.985
		c-0.618,0.01-1.226,0.089-1.814,0.235c-1.765,0.437-3.348,1.463-4.472,2.938c-1.47,1.93-2.909,3.876-4.332,5.831
		c-0.375,0.516-0.741,1.038-1.112,1.556c-1.052,1.465-2.096,2.935-3.121,4.413c-0.395,0.57-0.784,1.143-1.174,1.716
		c-1.023,1.494-2.033,2.995-3.029,4.504c-0.319,0.484-0.637,0.968-0.953,1.454c-1.135,1.739-2.25,3.487-3.348,5.243
		c-0.146,0.234-0.294,0.467-0.439,0.7c-6.383,10.267-12.154,20.826-17.293,31.643c-6.918-14.592-14.967-28.666-24.011-42.07
		c-0.92-1.365-1.825-2.739-2.766-4.088c-0.158-0.227-0.335-0.437-0.514-0.644c-1.571-1.822-3.881-2.854-6.305-2.791
		c-0.055,0.001-0.107-0.005-0.162-0.003l0,0h-0.001c-0.638,0.03-1.258,0.143-1.857,0.317c-0.049,0.014-0.102,0.021-0.151,0.037
		c-0.068,0.021-0.132,0.053-0.2,0.076c-1.847,0.628-3.433,1.905-4.42,3.646l-10.538,18.608L119.013,2.986
		c-1.556-1.922-3.946-3.031-6.378-2.985c-2.471,0.037-4.789,1.207-6.286,3.173c-1.462,1.921-2.896,3.857-4.313,5.804
		c-0.404,0.556-0.798,1.118-1.198,1.676c-1.024,1.427-2.041,2.858-3.039,4.297c-0.409,0.59-0.812,1.184-1.216,1.776
		c-1.01,1.477-2.009,2.96-2.993,4.45c-0.325,0.494-0.65,0.988-0.973,1.484c-1.132,1.735-2.245,3.478-3.341,5.23
		c-0.145,0.233-0.293,0.465-0.438,0.699C57.344,79.235,40.825,137.036,40.825,197.488c0,78.685,28.552,153.855,80.565,212.653
		c-23.826,26.933-42.831,57.415-56.536,90.745c-1.324,3.22-0.428,6.926,2.218,9.187c2.65,2.26,6.45,2.564,9.419,0.75
		c13.387-8.162,32.409-15.65,56.56-22.27c24.152,6.621,43.177,14.111,56.564,22.272c1.295,0.788,2.746,1.177,4.19,1.177
		c0.249,0,0.498-0.013,0.746-0.036c1.673,0.146,3.388-0.224,4.891-1.142c13.383-8.161,32.405-15.649,56.558-22.27
		c24.156,6.622,43.18,14.112,56.564,22.271c1.295,0.789,2.745,1.178,4.19,1.178c0.249,0,0.498-0.014,0.746-0.036
		c1.673,0.146,3.389-0.224,4.893-1.141c13.383-8.161,32.405-15.649,56.558-22.27c24.156,6.622,43.18,14.112,56.564,22.271
		c1.295,0.789,2.745,1.178,4.19,1.178c1.872,0,3.735-0.652,5.229-1.928c2.647-2.26,3.543-5.967,2.218-9.187
		C433.449,467.566,414.441,437.081,390.611,410.142z M317.478,485.697c-12.962-27.435-29.658-52.766-49.817-75.554
		c20.183-22.806,36.87-48.101,49.809-75.458c12.841,27.132,29.546,52.538,49.819,75.457
		C347.132,432.928,330.438,458.26,317.478,485.697z M194.528,485.695c-12.962-27.434-29.658-52.765-49.817-75.552
		c20.183-22.808,36.87-48.102,49.808-75.456c12.841,27.132,29.546,52.537,49.819,75.455
		C224.183,432.928,207.489,458.259,194.528,485.695z M391.306,55.604c2.656-0.22,5.03-1.738,6.343-4.056l9.919-17.512
		c0.179,0.281,0.351,0.567,0.529,0.848c0.86,1.359,1.71,2.721,2.547,4.091c0.456,0.746,0.9,1.499,1.349,2.248
		c0.559,0.933,1.117,1.866,1.665,2.804c0.488,0.835,0.969,1.675,1.448,2.514c0.493,0.862,0.983,1.726,1.468,2.594
		c0.486,0.871,0.971,1.743,1.447,2.617c0.468,0.857,0.929,1.717,1.387,2.578c0.467,0.875,0.935,1.75,1.393,2.629
		c0.481,0.922,0.95,1.851,1.42,2.777c0.414,0.816,0.835,1.629,1.242,2.448c0.83,1.672,1.645,3.348,2.442,5.034
		c0.303,0.64,0.594,1.284,0.892,1.925c0.546,1.173,1.091,2.348,1.621,3.529c0.298,0.662,0.588,1.329,0.881,1.994
		c0.53,1.203,1.057,2.41,1.572,3.621c0.253,0.595,0.504,1.192,0.754,1.789c0.574,1.374,1.139,2.753,1.692,4.135
		c0.171,0.426,0.344,0.852,0.512,1.279c5.39,13.643,9.794,27.694,13.177,42.099c0.025,0.106,0.061,0.207,0.09,0.311
		c5.28,22.617,7.976,45.93,7.976,69.591c0,74.537-26.971,145.762-76.124,201.544c-26.039-29.553-45.85-63.441-58.725-99.859
		c-0.039-0.111-0.081-0.22-0.12-0.33c-0.75-2.131-1.477-4.271-2.18-6.419c-0.003-0.011-0.006-0.02-0.011-0.03
		c-6.375-19.482-10.784-39.645-13.122-60.218c-0.006-0.054-0.011-0.107-0.017-0.162c-0.249-2.2-0.473-4.404-0.675-6.612
		c-0.025-0.268-0.044-0.539-0.068-0.807c-0.178-2.009-0.34-4.019-0.479-6.035c-0.039-0.572-0.067-1.146-0.102-1.719
		c-0.109-1.732-0.215-3.463-0.294-5.2c-0.048-1.059-0.076-2.12-0.113-3.18c-0.045-1.28-0.101-2.558-0.13-3.84
		c-0.054-2.374-0.084-4.752-0.084-7.133c0-1.92,0.019-3.836,0.055-5.75c0.021-1.167,0.061-2.332,0.096-3.497
		c0.021-0.713,0.035-1.428,0.061-2.14c0.062-1.678,0.14-3.354,0.229-5.028c0.009-0.163,0.014-0.327,0.024-0.491
		c0.808-14.736,2.679-29.348,5.589-43.742c0.004-0.019,0.011-0.036,0.014-0.056c0.463-2.289,0.954-4.577,1.471-6.858
		c0.03-0.133,0.062-0.266,0.093-0.399c0.256-1.121,0.534-2.235,0.801-3.353c23.899,13.232,51.511,20.186,80.548,20.186
		c13.803,0,27.462-1.606,40.599-4.774c4.322-1.042,6.981-5.391,5.939-9.716c-1.042-4.321-5.393-6.984-9.716-5.939
		c-11.902,2.871-24.291,4.325-36.823,4.325c-27.728,0-53.951-6.952-76.235-20.161c0.084-0.278,0.159-0.561,0.243-0.84
		c0.031-0.102,0.063-0.204,0.094-0.306c0.129-0.426,0.264-0.85,0.395-1.276l0.029-0.092c0.502-1.63,1.015-3.253,1.544-4.872
		c0.171-0.522,0.345-1.044,0.519-1.563l0.159-0.478c0.509-1.518,1.028-3.031,1.564-4.547c0.237-0.673,0.472-1.345,0.72-2.026
		c0.571-1.586,1.158-3.161,1.75-4.718l0.269-0.714l0.371-0.983c0.306-0.79,0.624-1.573,0.937-2.359
		c0.261-0.653,0.516-1.309,0.779-1.96c0.034-0.085,0.059-0.173,0.09-0.259c8.828-21.811,20.16-42.514,33.914-61.877l25.431,31.419
		C386.06,54.716,388.653,55.81,391.306,55.604z M268.356,55.604c2.656-0.22,5.03-1.738,6.343-4.056l9.915-17.507
		c9.34,14.69,17.427,30.197,24.129,46.274c-11.656,29.668-18.781,60.998-21.134,93.28c-0.018,0.25-0.034,0.499-0.053,0.749
		c-0.116,1.64-0.223,3.282-0.315,4.927c-0.035,0.636-0.063,1.271-0.096,1.907c-0.067,1.33-0.132,2.66-0.181,3.993
		c-0.041,1.067-0.067,2.135-0.097,3.204c-0.027,0.961-0.06,1.92-0.078,2.881c-0.04,2.076-0.062,4.154-0.062,6.233
		c0,38.056,6.58,75.187,19.563,110.534c0.364,0.993,0.75,1.978,1.124,2.966c0.458,1.211,0.904,2.426,1.377,3.634
		c-12.868,30.89-30.599,59.238-52.79,84.41c-23.038-26.145-41.202-55.681-54-87.359c-0.003-0.009-0.005-0.016-0.009-0.025
		c-0.875-2.163-1.72-4.336-2.543-6.514c-0.526-1.393-1.027-2.796-1.532-4.195c-0.271-0.749-0.552-1.497-0.816-2.248
		c-0.634-1.804-1.244-3.615-1.844-5.43c-0.112-0.337-0.229-0.673-0.339-1.01c-0.66-2.023-1.299-4.054-1.917-6.09
		c-0.036-0.12-0.075-0.24-0.112-0.361c-5.262-17.416-8.967-35.345-11.044-53.598c-0.01-0.088-0.018-0.177-0.029-0.265
		c-0.245-2.17-0.467-4.344-0.666-6.522c-0.027-0.291-0.047-0.583-0.073-0.875c-0.175-1.988-0.337-3.979-0.473-5.973
		c-0.04-0.587-0.068-1.177-0.104-1.765c-0.108-1.719-0.213-3.438-0.292-5.161c-0.048-1.066-0.076-2.135-0.114-3.202
		c-0.045-1.272-0.1-2.542-0.13-3.815c-0.055-2.375-0.085-4.754-0.085-7.136c0-2.272,0.031-4.539,0.081-6.804
		c0.014-0.652,0.038-1.301,0.056-1.953c0.047-1.672,0.104-3.343,0.178-5.01c0.029-0.655,0.06-1.309,0.093-1.962
		c0.093-1.843,0.202-3.683,0.327-5.521c0.027-0.392,0.05-0.784,0.078-1.176c0.935-12.882,2.693-25.625,5.235-38.2
		c0.005-0.026,0.014-0.05,0.019-0.076c0.717-3.548,1.52-7.083,2.366-10.609c23.898,13.231,51.509,20.184,80.543,20.184
		c2.317,0,4.664-0.046,6.973-0.137c4.443-0.175,7.902-3.919,7.728-8.363c-0.175-4.443-3.899-7.914-8.363-7.728
		c-2.099,0.083-4.231,0.125-6.337,0.125c-27.726,0-53.946-6.951-76.23-20.157c1.368-4.574,2.84-9.118,4.42-13.618
		c0.112-0.319,0.233-0.634,0.346-0.953c0.665-1.872,1.339-3.741,2.04-5.599c0.478-1.265,0.981-2.522,1.476-3.782
		c0.361-0.918,0.707-1.843,1.078-2.757c0.003-0.008,0.005-0.015,0.009-0.023c0.001-0.002,0.001-0.004,0.002-0.006
		c0.035-0.088,0.061-0.178,0.093-0.266c8.828-21.808,20.159-42.51,33.911-61.87l25.431,31.419
		C263.109,54.716,265.704,55.81,268.356,55.604z M65.284,126.13c23.916,13.261,51.556,20.231,80.625,20.231
		c1.65,0,3.295-0.023,4.932-0.069c4.446-0.126,7.947-3.83,7.822-8.275c-0.123-4.368-3.702-7.825-8.044-7.825
		c-0.076,0-0.155,0.001-0.231,0.003c-1.488,0.042-2.979,0.063-4.479,0.063c-27.735,0-53.963-6.956-76.25-20.169
		c9.514-31.845,24.081-61.67,43.395-88.862l25.428,31.418c1.677,2.071,4.272,3.164,6.922,2.959c2.324-0.192,4.432-1.38,5.803-3.225
		c0.195-0.264,0.377-0.541,0.541-0.831l9.915-17.507c9.339,14.689,17.426,30.195,24.131,46.273
		c-10.86,27.642-17.787,56.727-20.587,86.682c-0.031,0.327-0.059,0.655-0.089,0.982c-0.179,1.979-0.34,3.96-0.483,5.946
		c-0.043,0.588-0.085,1.176-0.125,1.765c-0.116,1.753-0.216,3.511-0.305,5.269c-0.035,0.71-0.075,1.418-0.107,2.129
		c-0.075,1.728-0.131,3.461-0.179,5.194c-0.019,0.682-0.046,1.362-0.061,2.045c-0.052,2.383-0.083,4.77-0.083,7.163
		c0,35.583,5.755,70.357,17.116,103.618c0.105,0.31,0.22,0.617,0.327,0.928c0.682,1.975,1.373,3.949,2.093,5.913
		c0.522,1.425,1.071,2.839,1.613,4.255c0.309,0.805,0.602,1.616,0.917,2.42c-12.866,30.888-30.598,59.235-52.79,84.41
		C83.892,343.25,56.928,272.028,56.928,197.489C56.929,173.141,59.757,149.248,65.284,126.13z M135.142,472.434
		c-0.685-0.184-1.388-0.276-2.09-0.276c-0.702,0-1.405,0.092-2.089,0.276c-15.977,4.294-29.983,8.996-41.886,14.057
		c11.773-23.558,26.5-45.413,43.975-65.244c17.479,19.837,32.206,41.691,43.979,65.246
		C165.126,481.433,151.119,476.729,135.142,472.434z M258.09,472.434c-0.685-0.184-1.388-0.276-2.09-0.276
		c-0.702,0-1.406,0.092-2.089,0.276c-15.978,4.294-29.983,8.998-41.885,14.057c11.772-23.556,26.497-45.41,43.974-65.243
		c17.479,19.837,32.206,41.69,43.979,65.245C288.076,481.433,274.069,476.729,258.09,472.434z M381.041,472.434
		c-0.685-0.184-1.388-0.276-2.09-0.276c-0.702,0-1.406,0.092-2.089,0.276c-15.978,4.294-29.983,8.998-41.885,14.057
		c11.772-23.556,26.497-45.41,43.974-65.243c17.479,19.837,32.206,41.69,43.979,65.245
		C411.026,481.433,397.02,476.729,381.041,472.434z"/>
	<path style="fill:#202020;" d="M355.967,75.088c-7.737,0-14.032,6.294-14.032,14.032c0,7.738,6.294,14.033,14.032,14.033
		c7.738,0,14.034-6.294,14.034-14.033C370.001,81.382,363.706,75.088,355.967,75.088z M355.967,91.191
		c-1.141,0-2.07-0.929-2.07-2.072c0-1.141,0.929-2.071,2.07-2.071c1.142,0,2.072,0.929,2.072,2.071
		C358.039,90.263,357.11,91.191,355.967,91.191z"/>
	<path style="fill:#202020;" d="M377.188,154.751c-2.747,3.497-2.137,8.558,1.36,11.305l58.164,45.677
		c1.474,1.158,3.227,1.72,4.967,1.72c2.387,0,4.749-1.055,6.337-3.079c2.747-3.497,2.137-8.558-1.36-11.305l-58.164-45.677
		C384.998,150.645,379.934,151.252,377.188,154.751z"/>
	<path style="fill:#202020;" d="M439.016,243.748l-12.283-9.646c-3.494-2.746-8.557-2.139-11.305,1.36
		c-2.747,3.497-2.137,8.558,1.36,11.305l12.283,9.646c1.474,1.158,3.227,1.72,4.967,1.72c2.387,0,4.749-1.055,6.337-3.079
		C443.124,251.557,442.514,246.495,439.016,243.748z"/>
	<path style="fill:#202020;" d="M316.863,168.29l79.538,62.464c1.474,1.158,3.227,1.72,4.967,1.72c2.387,0,4.749-1.055,6.337-3.079
		c2.747-3.497,2.137-8.558-1.36-11.305l-79.538-62.464c-3.494-2.746-8.558-2.139-11.305,1.36
		C312.756,160.482,313.365,165.544,316.863,168.29z"/>
	<path style="fill:#202020;" d="M429.53,286.978l-105.87-83.143c-3.494-2.746-8.559-2.139-11.305,1.36
		c-2.747,3.497-2.137,8.558,1.36,11.305l105.87,83.143c1.474,1.158,3.227,1.72,4.967,1.72c2.387,0,4.749-1.055,6.337-3.079
		C433.638,294.786,433.028,289.724,429.53,286.978z"/>
	<path style="fill:#202020;" d="M412.379,324.186l-46.627-36.617c-3.494-2.746-8.557-2.139-11.305,1.36
		c-2.747,3.497-2.137,8.559,1.36,11.305l46.627,36.617c1.474,1.158,3.227,1.72,4.967,1.72c2.387,0,4.749-1.055,6.337-3.079
		C416.486,331.994,415.877,326.934,412.379,324.186z"/>
	<path style="fill:#202020;" d="M348.494,284.255c2.747-3.498,2.137-8.56-1.359-11.306l-16.647-13.075
		c-3.498-2.746-8.56-2.137-11.306,1.359c-2.747,3.498-2.137,8.56,1.359,11.306l16.647,13.075c1.475,1.158,3.228,1.72,4.968,1.72
		C344.543,287.333,346.905,286.278,348.494,284.255z"/>
	<path style="fill:#202020;" d="M388.493,356.104l-29.965-23.534c-3.497-2.746-8.56-2.137-11.306,1.359
		c-2.747,3.498-2.137,8.56,1.359,11.306l29.965,23.534c1.475,1.158,3.228,1.72,4.968,1.72c2.387,0,4.749-1.055,6.337-3.078
		C392.599,363.914,391.99,358.852,388.493,356.104z"/>
	<path style="fill:#202020;" d="M256.51,166.055l13.361,10.491c1.474,1.158,3.227,1.72,4.967,1.72c2.387,0,4.749-1.056,6.337-3.079
		c2.747-3.498,2.137-8.56-1.36-11.305l-13.361-10.491c-3.494-2.746-8.557-2.136-11.305,1.36
		C252.404,158.248,253.012,163.309,256.51,166.055z"/>
	<path style="fill:#202020;" d="M194.826,168.29l73.154,57.45c1.474,1.158,3.227,1.72,4.967,1.72c2.387,0,4.749-1.055,6.337-3.079
		c2.747-3.497,2.137-8.558-1.36-11.305l-73.154-57.45c-3.494-2.746-8.557-2.139-11.305,1.36
		C190.72,160.482,191.329,165.544,194.826,168.29z"/>
	<path style="fill:#202020;" d="M233.097,238.787c-2.747,3.497-2.137,8.558,1.36,11.305l40.008,31.419
		c1.474,1.158,3.227,1.72,4.967,1.72c2.387,0,4.749-1.055,6.337-3.079c2.747-3.497,2.137-8.558-1.36-11.305l-40.008-31.419
		C240.906,234.682,235.844,235.289,233.097,238.787z"/>
	<path style="fill:#202020;" d="M223.346,239.184c2.387,0,4.749-1.055,6.337-3.078c2.747-3.498,2.137-8.56-1.359-11.306
		l-26.696-20.967c-3.497-2.746-8.56-2.137-11.306,1.359c-2.747,3.498-2.137,8.56,1.359,11.306l26.696,20.967
		C219.852,238.624,221.605,239.184,223.346,239.184z"/>
	<path style="fill:#202020;" d="M197.146,261.233c-2.747,3.497-2.137,8.558,1.36,11.305l81.891,64.312
		c1.474,1.158,3.227,1.72,4.967,1.72c2.387,0,4.749-1.055,6.337-3.079c2.747-3.497,2.137-8.559-1.36-11.305l-81.891-64.312
		C204.957,257.128,199.893,257.736,197.146,261.233z"/>
	<path style="fill:#202020;" d="M266.457,356.104l-29.965-23.534c-3.498-2.746-8.558-2.137-11.306,1.359
		c-2.747,3.498-2.137,8.56,1.359,11.306l29.965,23.534c1.475,1.158,3.228,1.72,4.968,1.72c2.387,0,4.749-1.055,6.337-3.078
		C270.562,363.914,269.953,358.852,266.457,356.104z"/>
	<path style="fill:#202020;" d="M132.909,166.055l13.361,10.491c1.474,1.158,3.227,1.72,4.967,1.72c2.387,0,4.749-1.056,6.337-3.079
		c2.747-3.498,2.137-8.56-1.36-11.305l-13.361-10.491c-3.494-2.746-8.557-2.136-11.305,1.36
		C128.803,158.248,129.413,163.309,132.909,166.055z"/>
	<path style="fill:#202020;" d="M71.225,168.29l73.154,57.45c1.474,1.158,3.227,1.72,4.967,1.72c2.387,0,4.749-1.055,6.337-3.079
		c2.747-3.497,2.137-8.558-1.36-11.305l-73.153-57.451c-3.494-2.746-8.557-2.139-11.305,1.36
		C67.119,160.482,67.729,165.544,71.225,168.29z"/>
	<path style="fill:#202020;" d="M155.83,283.231c2.387,0,4.749-1.055,6.337-3.079c2.747-3.497,2.137-8.558-1.36-11.305
		l-82.781-65.013c-3.497-2.746-8.56-2.139-11.306,1.36c-2.747,3.497-2.137,8.558,1.36,11.305l82.781,65.013
		C152.337,282.669,154.09,283.231,155.83,283.231z"/>
	<path style="fill:#202020;" d="M137.57,311.512c-2.747,3.498-2.137,8.56,1.359,11.306l17.867,14.033
		c1.475,1.158,3.228,1.72,4.968,1.72c2.387,0,4.749-1.055,6.337-3.078c2.747-3.498,2.137-8.56-1.359-11.306l-17.867-14.033
		C145.379,307.406,140.318,308.015,137.57,311.512z"/>
	<path style="fill:#202020;" d="M123.984,308.899c2.387,0,4.749-1.056,6.337-3.079c2.747-3.498,2.137-8.558-1.36-11.305
		L84.85,259.874c-3.494-2.746-8.558-2.139-11.305,1.36c-2.747,3.498-2.137,8.559,1.36,11.305l44.111,34.641
		C120.49,308.337,122.243,308.899,123.984,308.899z"/>
	<path style="fill:#202020;" d="M144.215,367.411c2.747-3.498,2.137-8.56-1.359-11.306l-29.965-23.534
		c-3.498-2.746-8.558-2.137-11.306,1.359c-2.747,3.498-2.137,8.56,1.359,11.306l29.965,23.534c1.475,1.158,3.228,1.72,4.968,1.72
		C140.263,370.489,142.626,369.434,144.215,367.411z"/>
</g>
<g style="opacity:0.15;">
	<path style="fill:#202020;" d="M75.393,197.488c0-63.536,18.973-122.603,51.501-171.96L112.75,8.053
		C72.698,60.656,48.877,126.272,48.877,197.488c0,82.545,31.985,157.582,84.174,213.53c4.581-4.91,8.998-9.977,13.259-15.174
		C102.021,341.834,75.393,272.788,75.393,197.488z"/>
</g>
<g style="opacity:0.15;">
	<path style="fill:#202020;" d="M198.344,197.488c0-63.536,18.973-122.603,51.501-171.96L235.701,8.053
		c-40.052,52.603-63.873,118.218-63.873,189.435c0,82.545,31.985,157.582,84.174,213.53c4.581-4.91,8.998-9.977,13.259-15.174
		C224.971,341.834,198.344,272.788,198.344,197.488z"/>
</g>
<g style="opacity:0.15;">
	<path style="fill:#202020;" d="M321.294,197.488c0-63.536,18.972-122.603,51.5-171.96L358.649,8.053
		c-40.049,52.603-63.871,118.218-63.871,189.435c0,82.545,31.985,157.582,84.172,213.53c4.581-4.91,8.998-9.977,13.259-15.174
		C347.92,341.834,321.294,272.788,321.294,197.488z"/>
</g>
</svg>