<svg width="64" height="74" viewBox="0 0 64 74" fill="none" xmlns="http://www.w3.org/2000/svg">
<path d="M3.25978 44.7317C2.99979 51.6481 13.4745 48.301 14.5824 53.4345C15.9852 59.9336 13.0104 65.8299 16.4832 68.5846C26.0523 76.175 33.8348 73.479 31.8382 73.7461C31.8382 73.7461 38.1184 75.0868 45.6852 68.4814C49.1016 65.499 46.9342 57.3858 47.7104 53.6087C48.6799 48.8904 57.9889 54.3952 58.6022 43.2696C58.7577 40.4493 57.7049 29.5414 56.8806 27.5271C55.8383 24.9802 49.2514 27.817 47.2109 26.3162C45.0484 24.7258 47.3902 18.8538 44.8407 18.1249C38.1854 16.2222 31.4985 16.7053 31.4985 16.7053C31.4985 16.7053 24.8221 16.2661 18.0047 18.2357C15.3525 19.0019 17.7467 24.6351 15.4367 26.2982C13.0176 28.0397 5.9294 25.8625 4.74939 28.9639C4.1152 30.6308 3.33983 42.5865 3.25978 44.7317Z" fill="#9B3E00"/>
<path d="M23.48 46.2723C24.4796 46.2723 25.2899 45.6235 25.2899 44.8232C25.2899 44.0229 24.4796 43.3742 23.48 43.3742C22.4804 43.3742 21.6701 44.0229 21.6701 44.8232C21.6701 45.6235 22.4804 46.2723 23.48 46.2723Z" fill="black" fill-opacity="0.825806"/>
<path d="M39.0439 46.4806C40.0434 46.4806 40.8538 45.8319 40.8538 45.0316C40.8538 44.2313 40.0434 43.5825 39.0439 43.5825C38.0443 43.5825 37.2339 44.2313 37.2339 45.0316C37.2339 45.8319 38.0443 46.4806 39.0439 46.4806Z" fill="black" fill-opacity="0.825806"/>
<path d="M46.4774 66.5012C46.4378 75.7997 17.3736 77.1995 16.4092 66.3915C15.2008 52.8488 46.5301 54.1105 46.4774 66.5012Z" fill="#FF771C" fill-opacity="0.825806"/>
<path d="M35.4309 42.3449C49.3167 39.5556 49.4447 40.1248 49.4447 40.1248V37.3924L46.7301 37.4962L35.5589 39.7833L35.4309 42.3449Z" fill="#FF771C" fill-opacity="0.825806" stroke="url(#paint0_linear_2_6)" stroke-width="0.999999"/>
<path d="M28.0021 39.7641C24.0874 38.9948 22.4876 38.668 20.0773 37.9189C15.2176 36.4084 14.1433 37.6163 14.1433 37.6163L13.8718 35.2947C15.4704 34.2132 16.071 34.6113 17.0088 34.5096L27.8755 37.2858L28.0021 39.7641Z" fill="#FF771C" fill-opacity="0.825806" stroke="url(#paint1_linear_2_6)" stroke-width="0.978157"/>
<path d="M47.3905 17.5499C48.0837 16.6264 49.8004 15.6132 51.2597 15.3018C53.382 14.8489 55.3635 12.5953 56.215 11.6947C64.3386 3.1026 63.9932 1.33514e-05 63.9932 1.33514e-05C63.9932 1.33514e-05 64.5321 24.7866 56.0214 25.153C52.9073 25.287 49.4797 26.9845 48.2222 25.3495C46.2467 22.7809 47.3905 17.5499 47.3905 17.5499Z" fill="#FF771C" fill-opacity="0.825806"/>
<path d="M14.6613 18.4663C14.0533 17.5427 12.5475 16.5296 11.2676 16.2182C9.40609 15.7653 7.6681 13.5117 6.92121 12.6111C-0.204066 4.01899 0.0988838 0.916401 0.0988838 0.916401C0.0988838 0.916401 -1.27186 25.9307 6.19298 26.2971C8.92444 26.4311 12.8288 26.9901 13.9318 25.3551C15.6646 22.7864 14.6613 18.4663 14.6613 18.4663Z" fill="#FF771C" fill-opacity="0.825806"/>
<path d="M35.4709 63.071C37.724 62.3804 39.1547 61.7199 41.6205 63.166C43.8947 65.4775 40.914 72.1579 36.1922 67.0962C36.1922 67.0962 38.1938 68.0342 39.3031 68.163C40.9002 68.3484 41.278 66.612 41.4207 66.0767C42.2266 63.0533 39.9461 62.4914 35.4709 63.071Z" fill="black" fill-opacity="0.825806"/>
<path d="M27.2018 62.8819C24.6576 62.1913 23.0421 61.5308 20.2578 62.9769C17.6898 65.2884 21.0556 71.9689 26.3873 66.9071C26.3873 66.9071 24.1271 67.8451 22.8745 67.9739C21.0712 68.1593 20.6445 66.4229 20.4834 65.8876C19.5734 62.8642 22.1485 62.3024 27.2018 62.8819Z" fill="black" fill-opacity="0.825806"/>
<defs>
<linearGradient id="paint0_linear_2_6" x1="35.4309" y1="39.8686" x2="49.4447" y2="39.8686" gradientUnits="userSpaceOnUse">
<stop offset="0.539084"/>
<stop offset="1" stop-opacity="0"/>
</linearGradient>
<linearGradient id="paint1_linear_2_6" x1="18.0448" y1="35.6855" x2="27.9963" y2="37.8025" gradientUnits="userSpaceOnUse">
<stop stop-opacity="0"/>
<stop offset="0.401617"/>
</linearGradient>
</defs>
</svg>
