<?xml version="1.0" encoding="iso-8859-1"?>
<!-- Uploaded to: SVG Repo, www.svgrepo.com, Generator: SVG Repo Mixer Tools -->
<svg height="800px" width="800px" version="1.1" id="Layer_1" xmlns="http://www.w3.org/2000/svg" xmlns:xlink="http://www.w3.org/1999/xlink" 
	 viewBox="0 0 512 512" xml:space="preserve">
<path style="fill:#8C5549;" d="M463.965,120.988c25.269,38.846,39.951,85.215,39.951,135.012
	c0,136.92-110.996,247.916-247.916,247.916S8.084,392.92,8.084,256S119.08,8.084,256,8.084c77.019,0,145.834,35.12,191.305,90.218"
	/>
<circle style="fill:#A0665D;" cx="256" cy="256" r="202.483"/>
<g style="opacity:0.15;">
	<path style="fill:#202020;" d="M80.164,256c0-107.349,83.543-195.171,189.158-202.034c-4.404-0.287-8.844-0.447-13.322-0.447
		C144.173,53.519,53.52,144.174,53.52,256S144.173,458.481,256,458.481c4.478,0,8.917-0.161,13.322-0.447
		C163.707,451.171,80.164,363.349,80.164,256z"/>
</g>
<g>
	<path style="fill:#202020;" d="M470.741,116.58c-2.435-3.742-7.444-4.802-11.185-2.368c-3.742,2.435-4.803,7.442-2.368,11.185
		c25.281,38.865,38.644,84.026,38.644,130.603c0,132.244-107.588,239.832-239.832,239.832S16.168,388.244,16.168,256
		S123.756,16.168,256,16.168c71.837,0,139.294,31.813,185.07,87.279c2.841,3.445,7.937,3.93,11.38,1.09
		c3.444-2.841,3.931-7.937,1.09-11.38C404.682,33.954,332.681,0,256,0C187.62,0,123.333,26.628,74.982,74.982
		C26.628,123.333,0,187.62,0,256s26.628,132.667,74.982,181.019C123.333,485.372,187.62,512,256,512s132.667-26.628,181.019-74.982
		C485.372,388.667,512,324.379,512,256C512,206.285,497.733,158.074,470.741,116.58z"/>
	<path style="fill:#202020;" d="M256,45.434c-0.057,0-0.114,0.002-0.172,0.002c-0.01,0-0.018,0-0.028,0
		C139.787,45.546,45.435,139.96,45.435,256c0,116.107,94.459,210.566,210.565,210.566c116.107,0,210.567-94.459,210.567-210.566
		S372.107,45.434,256,45.434z M424.305,158.806c-0.026,0.019-0.053,0.036-0.079,0.055l-10.5,8.246l-39.104-30.709l8.018-6.297
		c3.512-2.758,4.123-7.84,1.366-11.35c-2.757-3.513-7.841-4.122-11.35-1.366l-11.122,8.734l-39.102-30.708l18.032-14.161
		c0.082-0.065,0.154-0.136,0.233-0.203C375.702,98.061,404.867,125.277,424.305,158.806z M309.345,413.029l-39.103-30.708
		l39.103-30.708l39.103,30.708L309.345,413.029z M231.259,74.76c-2.757-3.513-7.84-4.122-11.35-1.366l-14.947,11.738l-15.169-11.913
		c19.856-7.214,41.211-11.27,63.457-11.581l43.005,33.773l-19.759,15.517c-0.001,0.001-0.003,0.002-0.005,0.003l-19.339,15.188
		l-21.821-17.136c-0.002-0.002-0.005-0.003-0.008-0.005l-17.273-13.565l11.843-9.3C233.405,83.353,234.016,78.27,231.259,74.76z
		 M281.516,63.279c14.659,1.931,28.808,5.502,42.257,10.52l-14.429,11.333L281.516,63.279z M309.346,249.08l-39.105-30.709
		l39.102-30.708l39.105,30.71L309.346,249.08z M296.257,259.359l-39.103,30.708l-39.104-30.709l39.103-30.709L296.257,259.359z
		 M257.152,208.092l-39.102-30.707l39.102-30.708l39.102,30.707L257.152,208.092z M270.241,136.398l12.907-10.137
		c0.001,0,0.001-0.001,0.002-0.001l26.193-20.571l39.102,30.708l-39.102,30.708L270.241,136.398z M231.155,126.26
		c0.001,0.001,0.002,0.001,0.003,0.002l12.906,10.135l-39.102,30.708l-39.103-30.708l39.102-30.707L231.155,126.26z
		 M191.874,177.385l-39.103,30.709l-39.103-30.708l39.103-30.709L191.874,177.385z M204.963,187.664l39.102,30.707l-39.103,30.709
		l-39.102-30.707L204.963,187.664z M191.873,259.358l-39.102,30.708l-39.102-30.707l39.102-30.708L191.873,259.358z
		 M204.962,269.636l39.104,30.709l-39.103,30.708l-39.104-30.709L204.962,269.636z M191.874,341.333l-37.382,29.356l-39.104-30.709
		l37.382-29.358L191.874,341.333z M204.963,351.611l39.103,30.708l-37.382,29.358l-39.103-30.708L204.963,351.611z M218.051,341.333
		l39.103-30.708l39.103,30.708l-39.103,30.708L218.051,341.333z M322.434,341.333l39.103-30.708l39.103,30.708l-39.103,30.709
		L322.434,341.333z M309.345,331.054l-39.102-30.708l39.103-30.708l39.102,30.707L309.345,331.054z M329.02,264.532
		c-0.003-0.002-0.005-0.004-0.008-0.006l-6.577-5.165l36.122-28.368c0.001-0.001,0.003-0.002,0.004-0.003l2.975-2.337l39.102,30.707
		l-39.102,30.708L329.02,264.532z M322.432,177.384l39.102-30.708l39.105,30.709l-39.102,30.708L322.432,177.384z M172.846,80.311
		c0.303,0.333,0.629,0.651,0.995,0.939l18.032,14.161l-39.102,30.708l-11.122-8.734c-3.509-2.757-8.592-2.147-11.35,1.366
		c-2.758,3.511-2.146,8.593,1.366,11.35l8.018,6.297l-48.663,38.217c-3.512,2.758-4.123,7.84-1.366,11.35
		c1.594,2.032,3.968,3.091,6.363,3.091c1.573,0,3.144-0.483,4.524-1.422l39.141,30.738l-39.102,30.707l-16.832-13.219
		c-3.509-2.757-8.593-2.147-11.35,1.366c-2.758,3.511-2.146,8.593,1.366,11.35l13.729,10.782l-13.729,10.782
		c-3.512,2.758-4.123,7.84-1.366,11.35c1.594,2.032,3.968,3.091,6.363,3.091c1.747,0,3.507-0.563,4.987-1.727l16.832-13.219
		l39.101,30.707l-37.382,29.358l-13.887-10.905c-3.509-2.757-8.592-2.147-11.35,1.366c-2.758,3.511-2.146,8.593,1.366,11.35
		l10.783,8.468l-6.118,4.804c-13.73-26.629-21.49-56.818-21.49-88.785C61.604,178.546,107.142,111.535,172.846,80.311z
		 M91.133,358.879c0.403-0.218,0.793-0.471,1.165-0.763l10.002-7.855l39.104,30.709l-5.12,4.021
		c-3.512,2.758-4.123,7.84-1.366,11.35c1.594,2.032,3.968,3.091,6.363,3.091c1.747,0,3.507-0.563,4.987-1.727l8.223-6.458
		l39.103,30.709l-15.463,12.144C142.138,418.301,111.816,391.905,91.133,358.879z M206.683,432.235l20.382,16.007
		c-10.752-1.611-21.216-4.113-31.321-7.416L206.683,432.235z M256,450.397c-0.845,0-1.685-0.022-2.528-0.032
		c-0.454-1.574-1.38-3.027-2.766-4.115l-30.935-24.294l37.381-29.358l39.103,30.708l-2.321,1.823
		c-3.512,2.758-4.123,7.84-1.366,11.35c1.594,2.032,3.968,3.091,6.363,3.091c1.747,0,3.507-0.563,4.987-1.727l57.615-45.247
		l6.503,5.107c1.48,1.163,3.24,1.727,4.987,1.727c2.396,0,4.769-1.06,6.363-3.091c2.758-3.511,2.146-8.593-1.366-11.35l-3.4-2.67
		l39.103-30.709l7.837,6.155C387.304,413.3,325.907,450.397,256,450.397z M429.564,343.489l-3.603-2.831
		c1.064-2.603,0.744-5.687-1.118-8.056c-2.695-3.433-7.605-4.084-11.103-1.54l-39.115-30.717l39.102-30.708l16.832,13.219
		c1.48,1.163,3.24,1.727,4.987,1.727c2.396,0,4.769-1.06,6.363-3.091c2.758-3.511,2.146-8.593-1.366-11.35l-13.729-10.782
		l13.729-10.782c3.512-2.758,4.123-7.84,1.366-11.35c-2.757-3.513-7.841-4.122-11.35-1.366l-16.832,13.219l-39.102-30.707
		l39.139-30.738c1.38,0.939,2.95,1.421,4.523,1.421c2.396,0,4.769-1.06,6.363-3.091c1.807-2.3,2.158-5.271,1.205-7.824l6.078-4.773
		c11.833,25.092,18.464,53.101,18.464,82.634C450.398,287.452,442.881,317.178,429.564,343.489z"/>
</g>
</svg>