<?xml version="1.0" encoding="iso-8859-1"?>
<!-- Uploaded to: SVG Repo, www.svgrepo.com, Generator: SVG Repo Mixer Tools -->
<svg height="800px" width="800px" version="1.1" id="Layer_1" xmlns="http://www.w3.org/2000/svg" xmlns:xlink="http://www.w3.org/1999/xlink" 
	 viewBox="0 0 511.994 511.994" xml:space="preserve">
<path style="fill:#75433B;" d="M262.649,258.889l-2.959-1.187c-3.893-2.023-7.924-3.629-12.033-4.823l-112.624-45.127L116.207,233.4
	l0,0c-0.079,0.107-0.157,0.212-0.233,0.318l0,0l-18.826,25.649l74.924,91.607c3.236,5.398,7.287,10.398,12.112,14.811l0.002,0.002
	h0.001c1.757,1.607,3.61,3.14,5.573,4.579c29.607,21.732,71.226,15.347,92.957-14.26c21.731-29.607,15.346-71.226-14.261-92.956
	c-1.961-1.441-3.979-2.751-6.039-3.943L262.649,258.889z"/>
<g>
	<path style="fill:#FFF1CE;" d="M38.905,149.508c-6.475,8.821-5.661,20.747,1.32,28.614c-9.597-4.303-21.219-1.503-27.695,7.319
		c-7.453,10.153-5.263,24.426,4.891,31.879c10.154,7.453,24.426,5.264,31.88-4.89l53.484,39.257l26.376-35.935l-53.484-39.257
		c7.453-10.154,5.263-24.425-4.891-31.88C60.633,137.163,46.36,139.352,38.905,149.508z"/>
	<path style="fill:#FFF1CE;" d="M132.071,88.048c-6.476,8.824-5.662,20.749,1.32,28.615c-9.598-4.303-21.219-1.503-27.696,7.318
		c-7.452,10.154-5.263,24.428,4.891,31.88c10.154,7.453,24.426,5.264,31.88-4.889l53.484,39.256l26.375-35.934l-53.484-39.257
		c7.453-10.154,5.263-24.426-4.89-31.881C153.797,75.703,139.524,77.893,132.071,88.048z"/>
</g>
<path style="fill:#75433B;" d="M221.414,226.472c0,0,55.118-0.652,106.321-22.032c1.954-0.916,3.938-1.772,5.944-2.584
	c0.204-0.093,0.411-0.183,0.613-0.275c2.66-1.217,5.108-2.074,7.381-2.635c3.51-1.136,7.102-2.096,10.745-2.912
	c-3.758-1.918-7.64-3.461-11.599-4.613l-112.624-45.127l-18.826,25.648c-0.079,0.108-0.156,0.212-0.233,0.319l-18.826,25.649
	l23.362,28.564h7.741V226.472z"/>
<path style="fill:#8C5549;" d="M482.791,387.4h-26.167l19.063-3.47c14.489-19.84,23.041-44.294,23.041-70.741
	c0-66.316-53.759-120.074-120.073-120.074c-12.907,0-25.329,2.061-36.979,5.83c-2.272,0.562-4.721,1.419-7.381,2.635
	c-0.203,0.093-0.409,0.183-0.613,0.275c-2.006,0.812-3.991,1.67-5.944,2.584c-51.203,21.38-106.321,22.032-106.321,22.032h-16.747
	c-6.371,0-12.597,0.607-18.648,1.71l61.637,24.696c4.109,1.194,8.139,2.8,12.033,4.823l2.959,1.187l-0.232,0.318
	c2.061,1.192,4.077,2.502,6.039,3.943c29.607,21.73,35.992,63.349,14.261,92.956c-21.731,29.607-63.35,35.992-92.957,14.26
	c-1.962-1.44-3.816-2.972-5.573-4.579h-0.001l-0.002-0.002c-4.825-4.413-8.877-9.413-12.112-14.811l-58.011-70.929
	c-8.143,14.779-12.787,31.754-12.787,49.822c0,57.105,46.294,103.394,103.394,103.394H365.31v-0.12h117.482
	c11.661,0,21.113-9.453,21.113-21.112v-3.518C503.904,396.853,494.451,387.4,482.791,387.4z"/>
<g style="opacity:0.15;">
	<path style="fill:#202020;" d="M126.689,329.867c0-10.159,1.469-19.971,4.201-29.243l-16.83-20.578
		c-8.143,14.779-12.787,31.754-12.787,49.822c0,57.105,46.294,103.394,103.394,103.394h25.417
		C172.984,433.263,126.689,386.972,126.689,329.867z"/>
</g>
<g>
	<path style="fill:#202020;" d="M488.171,379.806c12.231-20.028,18.655-42.846,18.655-66.617
		c0-70.674-57.497-128.174-128.173-128.174c-8.502,0-16.942,0.848-25.231,2.511c-3.244-1.498-6.576-2.767-9.948-3.768
		l-112.266-44.983c-3.429-1.375-7.355-0.253-9.542,2.726l-1.079,1.469l-41.293-30.308c4.889-12.691,0.927-27.609-10.553-36.037
		c-5.341-3.919-11.658-5.992-18.268-5.992c-9.812,0-19.133,4.719-24.935,12.621c-5.086,6.93-6.884,15.503-5.491,23.588
		c-8.283,1.099-15.89,5.54-20.885,12.346c-10.083,13.739-7.109,33.118,6.629,43.202c5.342,3.92,11.659,5.993,18.269,5.993
		c7.048,0,13.842-2.434,19.261-6.735l41.303,30.316l-0.846,1.152c-2.186,2.98-2.079,7.061,0.26,9.921l12.797,15.647
		c-3.29,0.237-6.588,0.62-9.881,1.149l-48.913-19.599c-3.43-1.375-7.356-0.253-9.543,2.726l-1.078,1.469l-41.293-30.308
		c4.889-12.691,0.926-27.609-10.553-36.035c-5.341-3.92-11.658-5.993-18.268-5.993c-9.813,0-19.134,4.719-24.935,12.622
		c-5.086,6.93-6.883,15.502-5.49,23.587c-8.284,1.099-15.89,5.542-20.884,12.346c-4.885,6.655-6.886,14.813-5.633,22.974
		c1.252,8.161,5.606,15.344,12.261,20.227c5.342,3.92,11.66,5.993,18.27,5.993c7.047,0,13.842-2.434,19.26-6.735l41.303,30.316
		l-0.846,1.151c-2.186,2.98-2.079,7.061,0.26,9.921l13.551,16.567c-7.369,15.133-11.255,31.887-11.255,48.804
		c0,61.478,50.016,111.494,111.494,111.494c4.473,0,8.1-3.626,8.1-8.1c0-4.474-3.627-8.1-8.1-8.1
		c-52.545,0-95.294-42.749-95.294-95.294c0-11.909,2.244-23.726,6.552-34.746l49.513,60.538c3.635,5.954,8.101,11.369,13.28,16.105
		c0.025,0.024,0.051,0.045,0.077,0.069c0.572,0.522,1.164,1.012,1.75,1.514c1.45,1.245,2.922,2.449,4.424,3.551
		c0.921,0.676,1.857,1.323,2.8,1.953c0.288,0.192,0.58,0.375,0.869,0.563c0.672,0.435,1.349,0.862,2.033,1.274
		c0.33,0.2,0.663,0.396,0.997,0.591c0.683,0.398,1.372,0.783,2.065,1.158c0.308,0.166,0.615,0.338,0.924,0.5
		c0.901,0.472,1.81,0.924,2.727,1.358c0.098,0.046,0.193,0.097,0.292,0.143c0.99,0.462,1.993,0.897,3,1.314
		c0.386,0.16,0.775,0.307,1.163,0.46c0.629,0.247,1.258,0.49,1.892,0.72c0.475,0.173,0.953,0.338,1.431,0.501
		c0.543,0.185,1.089,0.361,1.635,0.531c0.532,0.167,1.065,0.335,1.601,0.49c0.455,0.131,0.913,0.249,1.369,0.371
		c2.292,0.616,4.611,1.12,6.954,1.512c0.246,0.041,0.492,0.085,0.74,0.124c0.788,0.124,1.579,0.231,2.372,0.329
		c0.235,0.029,0.472,0.056,0.708,0.083c0.824,0.094,1.649,0.178,2.479,0.245c0.133,0.011,0.266,0.017,0.399,0.027
		c2.296,0.172,4.605,0.24,6.924,0.197c0.626-0.011,1.252-0.029,1.875-0.056c0.395-0.017,0.789-0.03,1.185-0.053
		c0.922-0.054,1.841-0.13,2.759-0.218c0.394-0.038,0.788-0.08,1.184-0.124c0.835-0.094,1.668-0.199,2.498-0.321
		c0.193-0.028,0.387-0.045,0.579-0.075c0.374-0.057,0.74-0.136,1.111-0.199c0.406-0.069,0.811-0.14,1.215-0.217
		c15.691-2.906,29.768-10.609,40.582-22.102c0.159-0.167,0.316-0.334,0.473-0.503c0.394-0.427,0.787-0.853,1.173-1.291
		c0.596-0.673,1.18-1.359,1.754-2.055c0.186-0.227,0.369-0.457,0.553-0.687c0.67-0.834,1.328-1.678,1.965-2.543
		c11.79-16.063,16.62-35.757,13.598-55.454c-3.022-19.695-13.532-37.036-29.594-48.824c-0.816-0.599-1.657-1.183-2.509-1.755
		c-0.652-0.438-1.31-0.872-1.98-1.292c-0.625-0.718-1.376-1.327-2.223-1.791c-0.282-0.154-0.575-0.293-0.877-0.415l-2.602-1.043
		c-4.085-2.093-8.37-3.811-12.752-5.112l-26.692-10.695c0.026-0.001,0.059-0.002,0.085-0.003c0.308-0.01,0.638-0.022,1.004-0.036
		c0.026-0.001,0.053-0.002,0.079-0.003c0.374-0.014,0.782-0.031,1.213-0.05c0.045-0.002,0.086-0.003,0.132-0.005
		c0.432-0.019,0.895-0.041,1.382-0.066c0.077-0.004,0.152-0.008,0.231-0.012c0.489-0.025,1.003-0.053,1.543-0.084
		c0.083-0.004,0.166-0.01,0.251-0.014c0.558-0.032,1.138-0.068,1.747-0.107c0.07-0.004,0.143-0.01,0.213-0.014
		c1.292-0.084,2.692-0.185,4.197-0.303c0.067-0.005,0.131-0.01,0.199-0.015c0.721-0.057,1.47-0.12,2.237-0.187
		c0.114-0.01,0.227-0.019,0.341-0.029c0.76-0.067,1.543-0.138,2.346-0.215c0.123-0.012,0.246-0.024,0.37-0.036
		c0.815-0.078,1.649-0.161,2.505-0.249c0.111-0.012,0.226-0.024,0.338-0.036c0.892-0.093,1.8-0.191,2.733-0.296
		c0.037-0.004,0.075-0.009,0.111-0.013c0.941-0.106,1.903-0.218,2.884-0.337c0.071-0.009,0.141-0.017,0.214-0.026
		c0.956-0.117,1.933-0.24,2.925-0.368c0.148-0.019,0.294-0.038,0.442-0.057c0.967-0.126,1.95-0.26,2.948-0.4
		c0.172-0.024,0.345-0.049,0.517-0.072c1.007-0.143,2.026-0.291,3.063-0.446c0.154-0.023,0.311-0.048,0.465-0.07
		c1.077-0.163,2.167-0.332,3.272-0.51c0.071-0.012,0.145-0.024,0.216-0.036c1.122-0.181,2.258-0.37,3.41-0.568
		c0.072-0.013,0.144-0.024,0.216-0.037c1.135-0.195,2.285-0.401,3.446-0.612c0.17-0.031,0.337-0.062,0.507-0.093
		c1.125-0.207,2.263-0.423,3.41-0.646c0.201-0.039,0.402-0.079,0.604-0.118c1.147-0.225,2.303-0.458,3.47-0.7
		c0.19-0.039,0.38-0.08,0.57-0.12c1.203-0.252,2.414-0.51,3.636-0.78c0.11-0.024,0.221-0.05,0.332-0.075
		c1.241-0.275,2.491-0.559,3.75-0.854c0.071-0.017,0.142-0.032,0.213-0.05c1.261-0.296,2.534-0.605,3.811-0.921
		c0.174-0.043,0.348-0.085,0.523-0.13c1.233-0.308,2.474-0.626,3.721-0.954c0.217-0.057,0.434-0.114,0.651-0.172
		c1.238-0.328,2.48-0.665,3.728-1.013c0.211-0.058,0.42-0.118,0.631-0.177c1.278-0.359,2.559-0.727,3.845-1.107
		c0.138-0.041,0.278-0.083,0.417-0.125c1.333-0.396,2.67-0.804,4.01-1.224c0.033-0.011,0.067-0.021,0.1-0.031
		c1.337-0.42,2.677-0.854,4.02-1.298c0.177-0.058,0.354-0.116,0.531-0.175c1.284-0.428,2.57-0.868,3.857-1.32
		c0.224-0.079,0.447-0.157,0.671-0.235c1.275-0.45,2.552-0.913,3.83-1.387c0.216-0.08,0.432-0.162,0.648-0.242
		c1.3-0.487,2.601-0.984,3.9-1.495c0.158-0.062,0.315-0.125,0.472-0.188c1.368-0.542,2.736-1.094,4.101-1.664
		c0.107-0.044,0.212-0.091,0.316-0.14c1.742-0.816,3.556-1.605,5.549-2.412c0.103-0.042,0.204-0.085,0.305-0.131l0.636-0.286
		c2.104-0.962,4.108-1.682,5.956-2.138c0.186-0.046,0.369-0.098,0.551-0.157c0.012-0.004,0.025-0.008,0.037-0.011
		c1.105-0.356,2.217-0.684,3.33-1.005c0.497-0.141,0.988-0.286,1.494-0.423c0.053-0.015,0.107-0.027,0.16-0.042
		c1.626-0.438,3.295-0.851,4.999-1.232c0.006-0.001,0.012-0.004,0.018-0.005c8.011-1.792,16.195-2.716,24.448-2.716
		c61.742,0,111.973,50.231,111.973,111.974c0,23.911-7.428,46.721-21.482,65.963c-0.035,0.048-0.063,0.099-0.097,0.148h-61.983
		c15.958-16.97,21.367-33.048,21.698-34.071c1.376-4.243-0.943-8.786-5.181-10.179c-4.238-1.389-8.81,0.92-10.219,5.153
		c-0.108,0.321-11.14,32.345-49.16,50.489c-4.037,1.927-5.748,6.762-3.821,10.799c1.389,2.912,4.292,4.613,7.315,4.613
		c1.17,0,2.359-0.255,3.484-0.792c6.285-2.999,11.91-6.322,16.977-9.813c0.008,0,0.015,0.001,0.023,0.001h94.608
		c7.174,0,13.013,5.837,13.013,13.013v3.518c0,7.176-5.837,13.012-13.013,13.012H333.827c-7.176,0-13.013-5.836-13.013-13.012
		c0-4.473-3.626-8.1-8.1-8.1c-4.474,0-8.1,3.627-8.1,8.1c0,4.722,1.133,9.181,3.131,13.132h-76.233c-4.473,0-8.1,3.626-8.1,8.1
		c0,4.474,3.627,8.1,8.1,8.1h147.133c0.458,0,0.905-0.048,1.342-0.12h102.794c16.108,0,29.213-13.105,29.213-29.212v-3.518
		C512.004,394.243,501.717,382.339,488.171,379.806z M328.529,195.221c-0.135,0.057-0.262,0.114-0.396,0.172
		c-0.45,0.192-0.895,0.386-1.334,0.579c-0.188,0.083-0.378,0.166-0.565,0.251c-0.543,0.243-1.081,0.487-1.612,0.734
		c-0.054,0.025-0.109,0.049-0.163,0.075c-2.914,1.214-5.844,2.358-8.778,3.438c-0.121,0.044-0.242,0.091-0.363,0.135
		c-0.607,0.222-1.213,0.44-1.82,0.657c-0.159,0.057-0.319,0.116-0.477,0.172c-0.551,0.195-1.103,0.387-1.654,0.578
		c-0.218,0.076-0.436,0.153-0.656,0.228c-0.523,0.179-1.044,0.354-1.567,0.53c-0.244,0.082-0.487,0.165-0.731,0.246
		c-0.519,0.173-1.038,0.341-1.557,0.51c-0.245,0.08-0.491,0.162-0.737,0.241c-0.512,0.165-1.024,0.326-1.536,0.487
		c-0.253,0.08-0.505,0.161-0.757,0.24c-0.509,0.159-1.016,0.313-1.524,0.469c-0.254,0.078-0.508,0.157-0.76,0.233
		c-0.512,0.154-1.024,0.306-1.536,0.457c-0.247,0.073-0.494,0.148-0.741,0.219c-0.512,0.15-1.023,0.296-1.534,0.443
		c-0.246,0.07-0.492,0.143-0.739,0.212c-0.512,0.145-1.023,0.287-1.534,0.429c-0.242,0.067-0.484,0.135-0.726,0.202
		c-0.516,0.141-1.03,0.28-1.544,0.418c-0.234,0.063-0.47,0.127-0.705,0.19c-0.517,0.137-1.032,0.271-1.549,0.405
		c-0.23,0.059-0.46,0.121-0.69,0.179c-0.517,0.133-1.033,0.262-1.548,0.392c-0.226,0.057-0.453,0.114-0.678,0.171
		c-0.517,0.129-1.034,0.255-1.549,0.38c-0.22,0.054-0.441,0.108-0.661,0.161c-0.536,0.13-1.069,0.255-1.603,0.381
		c-0.191,0.045-0.383,0.091-0.575,0.136c-0.544,0.127-1.085,0.251-1.627,0.374c-0.185,0.042-0.37,0.085-0.555,0.126
		c-0.542,0.122-1.082,0.242-1.621,0.361c-0.178,0.039-0.357,0.079-0.535,0.118c-0.557,0.122-1.111,0.241-1.663,0.359
		c-0.154,0.032-0.309,0.066-0.462,0.099c-0.573,0.121-1.144,0.24-1.713,0.356c-0.131,0.027-0.262,0.054-0.392,0.081
		c-0.584,0.12-1.164,0.237-1.743,0.351c-0.116,0.023-0.231,0.046-0.347,0.069c-0.599,0.119-1.197,0.234-1.791,0.349
		c-0.087,0.017-0.176,0.035-0.264,0.051c-0.619,0.119-1.236,0.234-1.848,0.348c-0.06,0.011-0.122,0.023-0.183,0.033
		c-0.626,0.116-1.25,0.229-1.868,0.34c-0.049,0.009-0.098,0.017-0.147,0.027c-0.636,0.113-1.269,0.225-1.898,0.333
		c-0.027,0.004-0.054,0.01-0.081,0.014c-24.451,4.216-42.547,4.598-43.545,4.615h-3.843l-16.956-20.732l1.923-2.62l0,0
		l26.375-35.934c0.002-0.002,0.003-0.004,0.004-0.008l2.151-2.931L328.529,195.221z M147.258,144.44
		c-1.444-1.061-3.122-1.57-4.787-1.57c-2.49,0-4.949,1.145-6.536,3.308c-2.802,3.817-7.129,6.005-11.872,6.005
		c-3.138,0-6.142-0.987-8.684-2.853c-6.537-4.797-7.952-14.02-3.155-20.556c2.798-3.812,7.122-5.998,11.863-5.998
		c2.083,0,4.099,0.43,5.989,1.278c3.484,1.563,7.585,0.48,9.843-2.598c2.259-3.078,2.063-7.315-0.471-10.169
		c-4.563-5.141-4.919-12.897-0.849-18.445c2.803-3.817,7.13-6.007,11.876-6.007c3.138,0,6.141,0.986,8.682,2.851
		c6.536,4.8,7.951,14.022,3.154,20.559c-2.647,3.606-1.869,8.676,1.737,11.323l46.954,34.463l-16.79,22.874L147.258,144.44z
		 M54.095,205.9c-1.399-1.027-3.08-1.57-4.793-1.57c-0.408,0-0.82,0.031-1.228,0.094c-2.123,0.325-4.031,1.482-5.302,3.214
		c-2.802,3.817-7.128,6.005-11.871,6.005c-3.138,0-6.142-0.986-8.685-2.853c-3.167-2.324-5.238-5.741-5.834-9.625
		c-0.595-3.883,0.356-7.764,2.681-10.932c2.797-3.811,7.122-5.998,11.862-5.998c2.083,0,4.098,0.429,5.988,1.278
		c3.482,1.562,7.584,0.481,9.843-2.598c2.259-3.077,2.063-7.314-0.472-10.169c-4.562-5.141-4.918-12.898-0.848-18.445
		c2.802-3.818,7.13-6.007,11.875-6.007c3.137,0,6.14,0.986,8.682,2.852c6.537,4.798,7.952,14.021,3.155,20.557
		c-1.271,1.732-1.803,3.898-1.476,6.021c0.325,2.123,1.482,4.031,3.213,5.302l46.954,34.464l-16.791,22.874L54.095,205.9z
		 M263.663,269.681c12.576,9.23,20.803,22.804,23.168,38.224c2.365,15.418-1.415,30.836-10.643,43.411
		c-0.652,0.888-1.331,1.752-2.029,2.597c-0.127,0.156-0.261,0.303-0.391,0.458c-0.623,0.739-1.257,1.466-1.914,2.17
		c-0.058,0.064-0.119,0.125-0.177,0.188c-8.555,9.088-19.856,15.214-32.098,17.468c-0.159,0.029-0.316,0.057-0.475,0.085
		c-0.892,0.157-1.79,0.288-2.69,0.403c-0.233,0.029-0.468,0.064-0.701,0.091c-1.002,0.116-2.009,0.207-3.021,0.271
		c-0.068,0.004-0.137,0.012-0.205,0.016c-1.139,0.068-2.283,0.103-3.43,0.103c-1.473,0-2.938-0.059-4.393-0.167
		c-0.111-0.009-0.222-0.014-0.334-0.023c-0.642-0.052-1.28-0.118-1.918-0.19c-0.194-0.023-0.389-0.044-0.583-0.069
		c-0.612-0.076-1.224-0.16-1.833-0.255c-0.205-0.032-0.408-0.069-0.612-0.103c-1.82-0.305-3.619-0.699-5.395-1.174
		c-0.367-0.098-0.734-0.193-1.099-0.298c-0.416-0.12-0.828-0.251-1.241-0.38c-0.432-0.136-0.863-0.274-1.292-0.42
		c-0.373-0.126-0.744-0.256-1.115-0.391c-0.496-0.18-0.988-0.369-1.48-0.563c-0.306-0.12-0.612-0.237-0.916-0.363
		c-0.786-0.326-1.569-0.665-2.343-1.026c-0.087-0.041-0.172-0.086-0.259-0.127c-0.706-0.335-1.407-0.684-2.103-1.048
		c-0.248-0.13-0.495-0.267-0.741-0.401c-0.536-0.291-1.069-0.588-1.597-0.895c-0.266-0.154-0.53-0.312-0.794-0.471
		c-0.529-0.32-1.054-0.65-1.575-0.987c-0.231-0.15-0.464-0.296-0.693-0.449c-0.738-0.492-1.47-0.998-2.189-1.526
		c-0.827-0.607-1.65-1.247-2.464-1.915s-1.617-1.364-2.405-2.084c-0.011-0.01-0.022-0.019-0.032-0.029
		c-3.648-3.336-6.843-7.102-9.517-11.215c-0.382-0.588-0.754-1.183-1.113-1.783c-0.202-0.337-0.429-0.659-0.677-0.963
		l-58.011-70.929c-0.002-0.003-0.005-0.005-0.008-0.009l-12.931-15.81l1.915-2.609c0.003-0.004,0.006-0.008,0.009-0.011
		l26.376-35.935c0.002-0.003,0.004-0.008,0.008-0.011l2.148-2.927l45.157,18.093c0.001,0,0.002,0.001,0.002,0.001l61.637,24.696
		c0.246,0.099,0.498,0.186,0.752,0.259c3.631,1.055,7.184,2.48,10.559,4.234c0.235,0.121,0.475,0.232,0.72,0.33l0.59,0.237
		c0.34,0.281,0.706,0.536,1.095,0.76C260.203,267.285,261.987,268.45,263.663,269.681z"/>
	<path style="fill:#202020;" d="M455.508,305.269c-3.761,0-7.131-2.633-7.923-6.458c-0.611-2.951-1.421-5.889-2.408-8.734
		c-1.466-4.226,0.772-8.841,4.998-10.308c4.23-1.467,8.842,0.773,10.308,4.998c1.215,3.504,2.214,7.124,2.966,10.757
		c0.908,4.38-1.908,8.667-6.288,9.574C456.606,305.213,456.052,305.269,455.508,305.269z"/>
	<path style="fill:#202020;" d="M440.901,273.428c-2.43,0-4.832-1.088-6.427-3.162c-13.467-17.509-33.841-27.552-55.899-27.552
		c-4.474,0-8.1-3.627-8.1-8.1s3.626-8.1,8.1-8.1c27.128,0,52.182,12.348,68.74,33.875c2.727,3.546,2.063,8.631-1.483,11.359
		C444.361,272.881,442.623,273.428,440.901,273.428z"/>
</g>
<g style="opacity:0.15;">
	<path style="fill:#202020;" d="M225.635,372.226c-1.311-0.829-2.61-1.691-3.879-2.624c-1.962-1.439-3.816-2.972-5.573-4.579h-0.001
		l-0.002-0.002c-4.825-4.413-8.877-9.412-12.112-14.81l-70.494-86.191c0-0.001-0.001-0.001-0.001-0.002
		c-3.767-4.606-2.358-8.048-1.514-9.386l15.911-21.678c0.078-0.106,0.156-0.211,0.233-0.318l11.12-15.15l-24.289-9.733
		L116.207,233.4c-0.079,0.107-0.157,0.212-0.233,0.318l-18.826,25.649l74.924,91.607c3.236,5.398,7.287,10.398,12.112,14.811
		l0.002,0.002h0.001c1.757,1.607,3.61,3.14,5.573,4.579c16.733,12.282,37.301,15.578,55.949,10.782
		C238.731,379.353,231.943,376.4,225.635,372.226z"/>
</g>
<g style="opacity:0.15;">
	<path style="fill:#202020;" d="M225.181,200.49c-2.257-2.76-1.649-4.928-1.014-6.05l0.618-0.841l0.001-0.001l0,0l16.347-22.272
		c0.078-0.107,0.154-0.211,0.233-0.319l11.025-15.02l-24.193-9.694l-18.826,25.648c-0.079,0.108-0.156,0.212-0.233,0.319
		l-18.828,25.649l23.362,28.564h7.741c0,0,9.231-0.113,23.623-1.704L225.181,200.49C225.183,200.49,225.181,200.49,225.181,200.49z"
		/>
</g>
</svg>