<?xml version="1.0" encoding="iso-8859-1"?>
<!-- Uploaded to: SVG Repo, www.svgrepo.com, Generator: SVG Repo Mixer Tools -->
<svg height="800px" width="800px" version="1.1" id="Layer_1" xmlns="http://www.w3.org/2000/svg" xmlns:xlink="http://www.w3.org/1999/xlink" 
	 viewBox="0 0 511.998 511.998" xml:space="preserve">
<path style="fill:#E95353;" d="M481.387,293.072c-27.218-23.51-68.341-20.505-91.85,6.712
	c-28.313,32.778-79.483,53.139-133.54,53.139s-105.225-20.362-133.538-53.139c-23.508-27.215-64.631-30.223-91.85-6.712
	c-27.218,23.511-30.223,64.634-6.712,91.85c53.138,61.516,139.905,98.244,232.1,98.244c48.248,0,95.009-10.058,136.241-28.464
	l22.941-11.419c28.079-15.505,52.888-35.172,72.917-58.361C511.609,357.705,508.603,316.582,481.387,293.072z"/>
<g style="opacity:0.15;">
	<path style="fill:#202020;" d="M281.27,479.098c-0.012,0-0.024,0-0.035,0c-92.195,0-178.963-36.727-232.1-98.244
		c-23.511-27.217-20.506-68.34,6.712-91.85c6.01-5.19,12.701-9.07,19.727-11.696c-15.872-0.591-31.996,4.562-44.965,15.764
		c-27.218,23.511-30.223,64.634-6.712,91.85c53.138,61.516,139.905,98.244,232.1,98.244c22.472,0,44.611-2.209,66.03-6.4
		c-13.148,1.53-26.493,2.342-39.962,2.342C281.801,479.108,281.536,479.098,281.27,479.098z"/>
</g>
<path style="fill:#DB4242;" d="M453.076,252.71l-0.136-2.818c-2.899-8.482-8.017-16.331-15.289-22.612
	c-9.747-8.418-21.713-12.59-33.654-12.703c-15.068-0.344-30.166,5.795-40.788,18.092c-22.669,26.244-63.591,42.572-106.861,42.66
	c-43.269-0.088-84.19-16.415-106.861-42.66c-10.62-12.296-25.72-18.435-40.788-18.092c-11.941,0.113-23.908,4.285-33.653,12.703
	c-7.273,6.282-12.392,14.129-15.291,22.612l-0.136,2.818c-2.123,7.598-2.523,15.601-1.129,23.386l-0.139,2.848
	c0.227-0.053,0.455-0.097,0.683-0.147c0.012,0.047,0.018,0.097,0.028,0.144c4.832-1.124,9.757-1.681,14.676-1.691
	c18.069,0.158,35.981,7.785,48.721,22.534c28.313,32.778,79.481,53.139,133.538,53.139c0.117,0,0.234-0.004,0.35-0.004
	c0.117,0,0.234,0.004,0.35,0.004c54.056,0,105.226-20.362,133.54-53.139c12.738-14.748,30.651-22.375,48.72-22.534
	c4.919,0.011,9.844,0.567,14.674,1.691c0.013-0.047,0.019-0.097,0.029-0.144c0.227,0.05,0.455,0.095,0.682,0.147l-0.136-2.848
	C455.6,268.312,455.201,260.309,453.076,252.71z"/>
<g style="opacity:0.15;">
	<path style="fill:#202020;" d="M108.272,214.591c-11.8,0.206-23.598,4.372-33.226,12.689c-7.273,6.282-12.392,14.129-15.291,22.612
		l-0.136,2.818c-2.123,7.598-2.523,15.601-1.129,23.386l-0.115,2.368c4.074-0.788,8.197-1.206,12.32-1.215
		c0.471,0.004,0.943,0.028,1.414,0.049c0.277-0.009,0.555-0.021,0.831-0.025c-0.193-5.405,0.432-10.821,1.891-16.046l0.136-2.818
		c2.899-8.483,8.019-16.331,15.291-22.612c9.745-8.418,21.712-12.59,33.653-12.703c0.756-0.017,1.511,0.009,2.266,0.024
		c0.259-0.006,0.518-0.021,0.778-0.024c3.201-0.073,6.402,0.17,9.564,0.681C128.071,217.953,118.224,214.859,108.272,214.591z"/>
</g>
<g>
	<path style="fill:#202020;" d="M511.799,337.019c-1.425-19.493-10.355-37.266-25.147-50.044c-7.234-6.249-15.36-10.807-23.89-13.75
		c2.101-19.555-5.411-38.964-20.547-52.041c-25.175-21.744-63.353-18.956-85.102,6.219c-21.245,24.595-59.99,39.874-101.115,39.874
		s-79.869-15.279-101.113-39.874c-21.749-25.177-59.926-27.966-85.102-6.219c-8.101,6.997-14.204,16.023-17.648,26.102
		c-1.439,4.21,0.808,8.789,5.016,10.227c4.209,1.442,8.789-0.808,10.226-5.016c2.523-7.378,6.995-13.99,12.935-19.122
		c18.456-15.94,46.439-13.897,62.382,4.558c6.477,7.498,14.337,14.228,23.237,20.078l-15.571,20.384
		c-2.701,3.534-2.024,8.589,1.511,11.29c1.46,1.115,3.178,1.654,4.883,1.654c2.425,0,4.821-1.09,6.407-3.165l16.859-22.069
		c8.391,4.189,17.422,7.691,26.897,10.419l-6.896,26.93c-1.103,4.31,1.496,8.698,5.805,9.801c0.67,0.172,1.342,0.253,2.003,0.253
		c3.591,0,6.866-2.42,7.798-6.059l6.964-27.195c8.861,1.68,17.992,2.696,27.247,3.014v26.893c0,4.449,3.605,8.055,8.055,8.055
		c4.449,0,8.055-3.605,8.055-8.055v-27.06c9.212-0.51,18.281-1.716,27.061-3.571l6.974,27.227c0.932,3.64,4.206,6.058,7.798,6.058
		c0.66,0,1.334-0.083,2.004-0.253c4.31-1.104,6.908-5.492,5.804-9.802l-6.99-27.292c9.217-2.875,17.984-6.48,26.106-10.754
		l17.41,22.794c1.585,2.076,3.982,3.165,6.407,3.165c1.704,0,3.424-0.539,4.883-1.654c3.535-2.7,4.212-7.755,1.511-11.29
		l-16.346-21.4c7.874-5.446,14.871-11.605,20.735-18.393c15.941-18.456,43.925-20.5,62.381-4.559
		c10.604,9.16,16.106,22.566,15.228,36.252c-18.866-2.112-37.655,3.174-52.566,14.608c-0.113,0.087-0.224,0.174-0.337,0.262
		c-0.891,0.692-1.773,1.4-2.635,2.136c-0.027,0.024-0.054,0.047-0.081,0.071c-0.813,0.696-1.61,1.417-2.396,2.151
		c-0.151,0.142-0.304,0.281-0.454,0.424c-0.774,0.736-1.534,1.492-2.279,2.265c-0.154,0.159-0.305,0.321-0.456,0.482
		c-0.77,0.813-1.529,1.64-2.266,2.493c-26.826,31.057-75.66,50.35-127.444,50.35c-51.783,0-100.616-19.294-127.442-50.35
		c-0.732-0.848-1.487-1.669-2.252-2.478c-0.195-0.206-0.392-0.411-0.59-0.615c-0.725-0.749-1.46-1.483-2.21-2.196
		c-0.049-0.047-0.098-0.097-0.147-0.144c-0.81-0.765-1.639-1.502-2.479-2.225c-0.177-0.152-0.355-0.303-0.535-0.453
		c-0.823-0.695-1.655-1.375-2.503-2.03c-0.017-0.013-0.033-0.027-0.05-0.04c-0.938-0.723-1.892-1.417-2.86-2.089
		c-0.049-0.034-0.099-0.068-0.148-0.102c-16.442-11.384-37.037-15.645-57.148-11.283c-0.078,0.017-0.156,0.033-0.233,0.05
		c-0.291,0.064-0.582,0.12-0.873,0.188c-0.193,0.045-0.38,0.104-0.567,0.162c-10.975,2.639-21.498,7.84-30.613,15.713
		c-14.792,12.777-23.724,30.55-25.148,50.044c-1.425,19.493,4.827,38.376,17.605,53.167C72.452,453.456,161.496,491.226,256,491.226
		c48.538,0,96.786-10.086,139.525-29.163c4.062-1.814,5.884-6.576,4.071-10.639c-1.813-4.063-6.577-5.886-10.639-4.071
		c-40.689,18.164-86.664,27.765-132.958,27.765c-89.887,0-174.375-35.684-226.004-95.455c-9.964-11.534-14.841-26.259-13.729-41.461
		c1.11-15.203,8.076-29.063,19.611-39.027c7.417-6.406,16.026-10.558,24.987-12.523c0.069-0.015,0.137-0.029,0.205-0.044
		c15.224-3.28,31.441-0.25,44.54,8.79c0.047,0.032,0.095,0.064,0.142,0.098c0.749,0.52,1.486,1.058,2.213,1.616
		c0.024,0.018,0.046,0.036,0.069,0.055c0.65,0.502,1.288,1.023,1.919,1.556c0.145,0.122,0.291,0.245,0.435,0.369
		c0.65,0.56,1.293,1.132,1.922,1.726c0.044,0.042,0.086,0.085,0.13,0.127c0.58,0.551,1.148,1.119,1.709,1.698
		c0.156,0.161,0.311,0.322,0.465,0.485c0.595,0.629,1.182,1.268,1.754,1.93c8.381,9.702,18.636,18.371,30.304,25.821l-20.679,27.069
		c-2.701,3.534-2.024,8.589,1.511,11.29c1.46,1.115,3.178,1.654,4.883,1.654c2.425,0,4.822-1.09,6.407-3.165l21.996-28.793
		c11.293,5.768,23.556,10.512,36.473,14.103l-9.068,35.416c-1.103,4.31,1.496,8.698,5.805,9.801c0.67,0.172,1.342,0.253,2.003,0.253
		c3.591,0,6.866-2.42,7.798-6.059l9.138-35.686c12.114,2.402,24.648,3.822,37.369,4.149v35.405c0,4.449,3.605,8.055,8.055,8.055
		c4.449,0,8.055-3.605,8.055-8.055v-35.573c12.671-0.594,25.125-2.27,37.13-4.915l9.157,35.756c0.932,3.64,4.206,6.059,7.798,6.059
		c0.66,0,1.333-0.082,2.003-0.253c4.31-1.103,6.909-5.491,5.805-9.801l-9.174-35.823c12.589-3.8,24.509-8.704,35.449-14.595
		l22.709,29.728c1.586,2.076,3.982,3.165,6.407,3.165c1.704,0,3.424-0.539,4.883-1.654c3.535-2.701,4.212-7.755,1.511-11.29
		l-21.623-28.306c9.102-6.12,17.287-12.999,24.304-20.558c0.977-1.052,1.931-2.118,2.862-3.196c0.571-0.662,1.159-1.301,1.754-1.929
		c0.155-0.163,0.309-0.325,0.466-0.486c0.56-0.579,1.128-1.146,1.706-1.696c0.044-0.042,0.087-0.087,0.132-0.129
		c0.629-0.593,1.272-1.165,1.921-1.725c0.144-0.125,0.29-0.247,0.435-0.369c0.628-0.529,1.262-1.048,1.908-1.547
		c0.028-0.021,0.056-0.045,0.084-0.067c0.723-0.555,1.456-1.09,2.199-1.608c0.055-0.039,0.111-0.075,0.165-0.114
		c13.081-9.023,29.271-12.054,44.472-8.792c0.099,0.021,0.199,0.042,0.297,0.064c8.946,1.969,17.541,6.118,24.946,12.516
		c11.535,9.964,18.5,23.825,19.61,39.026c1.112,15.203-3.765,29.928-13.729,41.463c-19.207,22.235-42.998,41.27-70.716,56.575
		c-3.895,2.15-5.307,7.051-3.157,10.944c2.149,3.894,7.051,5.31,10.944,3.157c29.391-16.228,54.664-36.465,75.12-60.146
		C506.97,375.396,513.223,356.515,511.799,337.019z"/>
	<path style="fill:#202020;" d="M121.131,153.62c-2.884,9.386-9.049,15.483-9.08,15.513c-3.216,3.073-3.334,8.171-0.261,11.388
		c1.583,1.656,3.702,2.49,5.826,2.49c1.999,0,4.003-0.741,5.563-2.23c0.359-0.344,8.856-8.564,13.103-21.647
		c3.982-12.269,5.039-31.211-12.545-51.785c-23.145-27.08-3.264-45.799-0.882-47.875c3.365-2.882,3.771-7.943,0.903-11.326
		c-2.877-3.394-7.957-3.811-11.353-0.934c-0.58,0.492-14.222,12.263-15.751,31.281c-1.07,13.32,3.922,26.55,14.837,39.321
		C121.564,129.604,124.807,141.649,121.131,153.62z"/>
	<path style="fill:#202020;" d="M188.966,129.087c-2.884,9.386-9.049,15.483-9.08,15.513c-3.216,3.073-3.334,8.171-0.261,11.388
		c1.583,1.656,3.702,2.491,5.826,2.491c1.999,0,4.003-0.74,5.563-2.23c0.359-0.344,8.856-8.564,13.103-21.647
		c3.982-12.268,5.039-31.211-12.545-51.784c-23.145-27.081-3.264-45.8-0.882-47.876c3.365-2.882,3.771-7.943,0.903-11.326
		c-2.878-3.392-7.958-3.811-11.353-0.934c-0.58,0.492-14.222,12.263-15.751,31.281c-1.07,13.32,3.922,26.551,14.837,39.322
		C189.399,105.072,192.642,117.118,188.966,129.087z"/>
	<path style="fill:#202020;" d="M256.801,153.62c-2.884,9.386-9.049,15.483-9.08,15.513c-3.216,3.073-3.334,8.171-0.261,11.388
		c1.583,1.656,3.702,2.49,5.826,2.49c1.999,0,4.003-0.741,5.563-2.23c0.359-0.344,8.856-8.564,13.103-21.647
		c3.982-12.269,5.039-31.211-12.545-51.785c-23.145-27.08-3.264-45.799-0.882-47.875c3.365-2.882,3.771-7.943,0.903-11.326
		c-2.878-3.394-7.958-3.811-11.353-0.934c-0.58,0.492-14.222,12.263-15.751,31.281c-1.07,13.32,3.922,26.55,14.837,39.321
		C257.235,129.604,260.477,141.649,256.801,153.62z"/>
	<path style="fill:#202020;" d="M324.637,129.087c-2.884,9.386-9.049,15.483-9.08,15.513c-3.216,3.073-3.334,8.171-0.261,11.388
		c1.583,1.656,3.702,2.491,5.826,2.491c1.999,0,4.003-0.74,5.563-2.23c0.359-0.344,8.856-8.564,13.103-21.647
		c3.982-12.268,5.039-31.211-12.545-51.784c-23.145-27.081-3.264-45.8-0.882-47.876c3.365-2.882,3.771-7.943,0.903-11.326
		c-2.878-3.392-7.958-3.811-11.353-0.934c-0.58,0.492-14.222,12.263-15.751,31.281c-1.07,13.32,3.922,26.551,14.837,39.322
		C325.07,105.072,328.313,117.118,324.637,129.087z"/>
	<path style="fill:#202020;" d="M392.472,153.62c-2.884,9.386-9.049,15.483-9.08,15.513c-3.216,3.073-3.334,8.171-0.261,11.388
		c1.583,1.656,3.702,2.49,5.826,2.49c1.999,0,4.003-0.741,5.563-2.23c0.359-0.344,8.856-8.564,13.103-21.647
		c3.982-12.269,5.039-31.211-12.545-51.785c-23.145-27.08-3.264-45.799-0.882-47.875c3.365-2.882,3.771-7.943,0.903-11.326
		c-2.878-3.394-7.958-3.811-11.353-0.934c-0.58,0.492-14.222,12.263-15.751,31.281c-1.07,13.32,3.922,26.55,14.837,39.321
		C392.906,129.604,396.148,141.649,392.472,153.62z"/>
</g>
</svg>